<mxfile host="65bd71144e">
    <diagram id="3JYV2Fww8IfEiX1Vt82l" name="Page-1">
        <mxGraphModel dx="641" dy="508" grid="1" gridSize="10" guides="1" tooltips="1" connect="1" arrows="1" fold="1" page="1" pageScale="1" pageWidth="850" pageHeight="1100" math="0" shadow="0">
            <root>
                <mxCell id="0"/>
                <mxCell id="1" parent="0"/>
                <mxCell id="2" value="&amp;lt;&amp;lt;abstract&amp;gt;&amp;gt;&lt;br&gt; BaseEdgeDetection" style="swimlane;fontStyle=0;align=center;verticalAlign=top;childLayout=stackLayout;horizontal=1;startSize=55;horizontalStack=0;resizeParent=1;resizeParentMax=0;resizeLast=0;collapsible=0;marginBottom=0;html=1;" vertex="1" parent="1">
                    <mxGeometry x="210" y="150" width="270" height="190" as="geometry"/>
                </mxCell>
                <mxCell id="3" value="attributes" style="text;html=1;strokeColor=none;fillColor=none;align=center;verticalAlign=middle;spacingLeft=4;spacingRight=4;overflow=hidden;rotatable=0;points=[[0,0.5],[1,0.5]];portConstraint=eastwest;" vertex="1" parent="2">
                    <mxGeometry y="55" width="270" height="20" as="geometry"/>
                </mxCell>
                <mxCell id="4" value="# gradientX : &lt;span class=&quot;hljs-type&quot;&gt;int&lt;/span&gt;[,]&amp;nbsp;&amp;nbsp;" style="text;html=1;strokeColor=none;fillColor=none;align=left;verticalAlign=middle;spacingLeft=4;spacingRight=4;overflow=hidden;rotatable=0;points=[[0,0.5],[1,0.5]];portConstraint=eastwest;" vertex="1" parent="2">
                    <mxGeometry y="75" width="270" height="20" as="geometry"/>
                </mxCell>
                <mxCell id="5" value="&lt;span style=&quot;color: rgb(240, 240, 240);&quot;&gt;# gradientX :&amp;nbsp;&lt;/span&gt;&lt;span style=&quot;color: rgb(240, 240, 240);&quot; class=&quot;hljs-type&quot;&gt;int&lt;/span&gt;&lt;span style=&quot;color: rgb(240, 240, 240);&quot;&gt;[,]&amp;nbsp;&amp;nbsp;&lt;/span&gt;" style="text;html=1;strokeColor=none;fillColor=none;align=left;verticalAlign=middle;spacingLeft=4;spacingRight=4;overflow=hidden;rotatable=0;points=[[0,0.5],[1,0.5]];portConstraint=eastwest;fontColor=#808080;" vertex="1" parent="2">
                    <mxGeometry y="95" width="270" height="20" as="geometry"/>
                </mxCell>
                <mxCell id="7" value="" style="line;strokeWidth=1;fillColor=none;align=left;verticalAlign=middle;spacingTop=-1;spacingLeft=3;spacingRight=3;rotatable=0;labelPosition=right;points=[];portConstraint=eastwest;" vertex="1" parent="2">
                    <mxGeometry y="115" width="270" height="8" as="geometry"/>
                </mxCell>
                <mxCell id="8" value="Methods" style="text;html=1;strokeColor=none;fillColor=none;align=center;verticalAlign=middle;spacingLeft=4;spacingRight=4;overflow=hidden;rotatable=0;points=[[0,0.5],[1,0.5]];portConstraint=eastwest;" vertex="1" parent="2">
                    <mxGeometry y="123" width="270" height="20" as="geometry"/>
                </mxCell>
                <mxCell id="9" value="&lt;span class=&quot;hljs-operator&quot;&gt;-&lt;/span&gt; InitializeFilters()&amp;nbsp;&lt;br&gt;+ ProcessEdgeDetection()&amp;nbsp;&amp;nbsp;" style="text;html=1;strokeColor=none;fillColor=none;align=left;verticalAlign=middle;spacingLeft=4;spacingRight=4;overflow=hidden;rotatable=0;points=[[0,0.5],[1,0.5]];portConstraint=eastwest;" vertex="1" parent="2">
                    <mxGeometry y="143" width="270" height="47" as="geometry"/>
                </mxCell>
                <mxCell id="12" value="&lt;span style=&quot;font-weight: 400;&quot;&gt;&amp;lt;&amp;lt;interface&amp;gt;&amp;gt;&lt;/span&gt;&lt;br style=&quot;font-weight: 400;&quot;&gt;&lt;span style=&quot;font-weight: 400;&quot;&gt;IEdgeDetection&lt;/span&gt;" style="swimlane;fontStyle=1;align=center;verticalAlign=middle;childLayout=stackLayout;horizontal=1;startSize=29;horizontalStack=0;resizeParent=1;resizeParentMax=0;resizeLast=0;collapsible=0;marginBottom=0;html=1;" vertex="1" parent="1">
                    <mxGeometry x="250" y="30" width="190" height="79" as="geometry"/>
                </mxCell>
                <mxCell id="13" value="Methods" style="text;html=1;strokeColor=none;fillColor=none;align=center;verticalAlign=middle;spacingLeft=4;spacingRight=4;overflow=hidden;rotatable=0;points=[[0,0.5],[1,0.5]];portConstraint=eastwest;" vertex="1" parent="12">
                    <mxGeometry y="29" width="190" height="25" as="geometry"/>
                </mxCell>
                <mxCell id="14" value="+ ProcessEdgeDetection()" style="text;html=1;strokeColor=none;fillColor=none;align=left;verticalAlign=middle;spacingLeft=4;spacingRight=4;overflow=hidden;rotatable=0;points=[[0,0.5],[1,0.5]];portConstraint=eastwest;" vertex="1" parent="12">
                    <mxGeometry y="54" width="190" height="25" as="geometry"/>
                </mxCell>
                <mxCell id="24" value="&amp;lt;&amp;lt;class&amp;gt;&amp;gt;&lt;br&gt;PrewittEdgeDetection&lt;br&gt;" style="swimlane;fontStyle=0;align=center;verticalAlign=top;childLayout=stackLayout;horizontal=1;startSize=55;horizontalStack=0;resizeParent=1;resizeParentMax=0;resizeLast=0;collapsible=0;marginBottom=0;html=1;" vertex="1" parent="1">
                    <mxGeometry x="60" y="400" width="270" height="210" as="geometry"/>
                </mxCell>
                <mxCell id="25" value="attributes" style="text;html=1;strokeColor=none;fillColor=none;align=center;verticalAlign=middle;spacingLeft=4;spacingRight=4;overflow=hidden;rotatable=0;points=[[0,0.5],[1,0.5]];portConstraint=eastwest;" vertex="1" parent="24">
                    <mxGeometry y="55" width="270" height="20" as="geometry"/>
                </mxCell>
                <mxCell id="26" value="# gradientX :&amp;nbsp;&lt;span class=&quot;hljs-type&quot;&gt;int&lt;/span&gt;[,]&amp;nbsp; (super)" style="text;html=1;strokeColor=none;fillColor=none;align=left;verticalAlign=middle;spacingLeft=4;spacingRight=4;overflow=hidden;rotatable=0;points=[[0,0.5],[1,0.5]];portConstraint=eastwest;" vertex="1" parent="24">
                    <mxGeometry y="75" width="270" height="20" as="geometry"/>
                </mxCell>
                <mxCell id="27" value="&lt;span style=&quot;color: rgb(240, 240, 240);&quot;&gt;# gradientX :&amp;nbsp;&lt;/span&gt;&lt;span style=&quot;color: rgb(240, 240, 240);&quot; class=&quot;hljs-type&quot;&gt;int&lt;/span&gt;&lt;span style=&quot;color: rgb(240, 240, 240);&quot;&gt;[,]&amp;nbsp;&amp;nbsp;&lt;/span&gt;&lt;span style=&quot;color: rgb(240, 240, 240);&quot;&gt;super)&lt;/span&gt;" style="text;html=1;strokeColor=none;fillColor=none;align=left;verticalAlign=middle;spacingLeft=4;spacingRight=4;overflow=hidden;rotatable=0;points=[[0,0.5],[1,0.5]];portConstraint=eastwest;fontColor=#808080;" vertex="1" parent="24">
                    <mxGeometry y="95" width="270" height="20" as="geometry"/>
                </mxCell>
                <mxCell id="28" value="..." style="text;html=1;strokeColor=none;fillColor=none;align=left;verticalAlign=middle;spacingLeft=4;spacingRight=4;overflow=hidden;rotatable=0;points=[[0,0.5],[1,0.5]];portConstraint=eastwest;" vertex="1" parent="24">
                    <mxGeometry y="115" width="270" height="20" as="geometry"/>
                </mxCell>
                <mxCell id="29" value="" style="line;strokeWidth=1;fillColor=none;align=left;verticalAlign=middle;spacingTop=-1;spacingLeft=3;spacingRight=3;rotatable=0;labelPosition=right;points=[];portConstraint=eastwest;" vertex="1" parent="24">
                    <mxGeometry y="135" width="270" height="8" as="geometry"/>
                </mxCell>
                <mxCell id="30" value="Methods" style="text;html=1;strokeColor=none;fillColor=none;align=center;verticalAlign=middle;spacingLeft=4;spacingRight=4;overflow=hidden;rotatable=0;points=[[0,0.5],[1,0.5]];portConstraint=eastwest;" vertex="1" parent="24">
                    <mxGeometry y="143" width="270" height="20" as="geometry"/>
                </mxCell>
                <mxCell id="31" value="&lt;span class=&quot;hljs-operator&quot;&gt;-&lt;/span&gt;&amp;nbsp;InitializeFilters()&amp;nbsp;&lt;br&gt;+ ProcessEdgeDetection()" style="text;html=1;strokeColor=none;fillColor=none;align=left;verticalAlign=middle;spacingLeft=4;spacingRight=4;overflow=hidden;rotatable=0;points=[[0,0.5],[1,0.5]];portConstraint=eastwest;" vertex="1" parent="24">
                    <mxGeometry y="163" width="270" height="47" as="geometry"/>
                </mxCell>
                <mxCell id="32" value="&amp;lt;&amp;lt;class&amp;gt;&amp;gt;&lt;br&gt;SobelEdgeDetection" style="swimlane;fontStyle=0;align=center;verticalAlign=top;childLayout=stackLayout;horizontal=1;startSize=55;horizontalStack=0;resizeParent=1;resizeParentMax=0;resizeLast=0;collapsible=0;marginBottom=0;html=1;" vertex="1" parent="1">
                    <mxGeometry x="350" y="400" width="270" height="210" as="geometry"/>
                </mxCell>
                <mxCell id="33" value="attributes" style="text;html=1;strokeColor=none;fillColor=none;align=center;verticalAlign=middle;spacingLeft=4;spacingRight=4;overflow=hidden;rotatable=0;points=[[0,0.5],[1,0.5]];portConstraint=eastwest;" vertex="1" parent="32">
                    <mxGeometry y="55" width="270" height="20" as="geometry"/>
                </mxCell>
                <mxCell id="34" value="# gradientX :&amp;nbsp;&lt;span class=&quot;hljs-type&quot;&gt;int&lt;/span&gt;[,]&amp;nbsp; (super)" style="text;html=1;strokeColor=none;fillColor=none;align=left;verticalAlign=middle;spacingLeft=4;spacingRight=4;overflow=hidden;rotatable=0;points=[[0,0.5],[1,0.5]];portConstraint=eastwest;" vertex="1" parent="32">
                    <mxGeometry y="75" width="270" height="20" as="geometry"/>
                </mxCell>
                <mxCell id="35" value="&lt;span style=&quot;color: rgb(240, 240, 240);&quot;&gt;# gradientX :&amp;nbsp;&lt;/span&gt;&lt;span style=&quot;color: rgb(240, 240, 240);&quot; class=&quot;hljs-type&quot;&gt;int&lt;/span&gt;&lt;span style=&quot;color: rgb(240, 240, 240);&quot;&gt;[,]&amp;nbsp;&amp;nbsp;&lt;/span&gt;&lt;span style=&quot;color: rgb(240, 240, 240);&quot;&gt;super)&lt;/span&gt;" style="text;html=1;strokeColor=none;fillColor=none;align=left;verticalAlign=middle;spacingLeft=4;spacingRight=4;overflow=hidden;rotatable=0;points=[[0,0.5],[1,0.5]];portConstraint=eastwest;fontColor=#808080;" vertex="1" parent="32">
                    <mxGeometry y="95" width="270" height="20" as="geometry"/>
                </mxCell>
                <mxCell id="36" value="..." style="text;html=1;strokeColor=none;fillColor=none;align=left;verticalAlign=middle;spacingLeft=4;spacingRight=4;overflow=hidden;rotatable=0;points=[[0,0.5],[1,0.5]];portConstraint=eastwest;" vertex="1" parent="32">
                    <mxGeometry y="115" width="270" height="20" as="geometry"/>
                </mxCell>
                <mxCell id="37" value="" style="line;strokeWidth=1;fillColor=none;align=left;verticalAlign=middle;spacingTop=-1;spacingLeft=3;spacingRight=3;rotatable=0;labelPosition=right;points=[];portConstraint=eastwest;" vertex="1" parent="32">
                    <mxGeometry y="135" width="270" height="8" as="geometry"/>
                </mxCell>
                <mxCell id="38" value="Methods" style="text;html=1;strokeColor=none;fillColor=none;align=center;verticalAlign=middle;spacingLeft=4;spacingRight=4;overflow=hidden;rotatable=0;points=[[0,0.5],[1,0.5]];portConstraint=eastwest;" vertex="1" parent="32">
                    <mxGeometry y="143" width="270" height="20" as="geometry"/>
                </mxCell>
                <mxCell id="39" value="&lt;span class=&quot;hljs-operator&quot;&gt;-&lt;/span&gt;&amp;nbsp;InitializeFilters()&amp;nbsp;&lt;br&gt;+ ProcessEdgeDetection()" style="text;html=1;strokeColor=none;fillColor=none;align=left;verticalAlign=middle;spacingLeft=4;spacingRight=4;overflow=hidden;rotatable=0;points=[[0,0.5],[1,0.5]];portConstraint=eastwest;" vertex="1" parent="32">
                    <mxGeometry y="163" width="270" height="47" as="geometry"/>
                </mxCell>
                <mxCell id="40" value="" style="html=1;verticalAlign=bottom;labelBackgroundColor=none;endArrow=block;endFill=1;exitX=0.5;exitY=0;exitDx=0;exitDy=0;entryX=0.328;entryY=0.989;entryDx=0;entryDy=0;entryPerimeter=0;" edge="1" parent="1" source="24" target="9">
                    <mxGeometry width="160" relative="1" as="geometry">
                        <mxPoint x="120" y="200" as="sourcePoint"/>
                        <mxPoint x="280" y="200" as="targetPoint"/>
                    </mxGeometry>
                </mxCell>
                <mxCell id="41" value="" style="html=1;verticalAlign=bottom;labelBackgroundColor=none;endArrow=block;endFill=1;entryX=0.633;entryY=1;entryDx=0;entryDy=0;entryPerimeter=0;exitX=0.537;exitY=0.007;exitDx=0;exitDy=0;exitPerimeter=0;" edge="1" parent="1" source="32" target="9">
                    <mxGeometry width="160" relative="1" as="geometry">
                        <mxPoint x="205" y="410" as="sourcePoint"/>
                        <mxPoint x="355.53999999999996" y="352.491" as="targetPoint"/>
                        <Array as="points"/>
                    </mxGeometry>
                </mxCell>
                <mxCell id="42" value="" style="endArrow=open;startArrow=none;endFill=0;startFill=0;endSize=8;html=1;verticalAlign=bottom;labelBackgroundColor=none;strokeWidth=1;exitX=0.5;exitY=0;exitDx=0;exitDy=0;" edge="1" parent="1" source="2">
                    <mxGeometry width="160" relative="1" as="geometry">
                        <mxPoint x="120" y="100" as="sourcePoint"/>
                        <mxPoint x="345" y="110" as="targetPoint"/>
                    </mxGeometry>
                </mxCell>
            </root>
        </mxGraphModel>
    </diagram>
</mxfile>